<!DOCTYPE svg PUBLIC "-//W3C//DTD SVG 1.1//EN" "http://www.w3.org/Graphics/SVG/1.1/DTD/svg11.dtd">
<!-- Uploaded to: SVG Repo, www.svgrepo.com, Transformed by: SVG Repo Mixer Tools -->
<svg width="133px" height="133px" viewBox="-5.76 -5.76 35.52 35.52" data-name="025_SCIENCE" id="_025_SCIENCE" xmlns="http://www.w3.org/2000/svg" fill="#faf9f9" transform="matrix(-1, 0, 0, 1, 0, 0)rotate(0)" stroke="#faf9f9">
<g id="SVGRepo_bgCarrier" stroke-width="0">
<path transform="translate(-5.76, -5.76), scale(2.22)" fill="#fafafa" d="M9.166.33a2.25 2.25 0 00-2.332 0l-5.25 3.182A2.25 2.25 0 00.5 5.436v5.128a2.25 2.25 0 001.084 1.924l5.25 3.182a2.25 2.25 0 002.332 0l5.25-3.182a2.25 2.25 0 001.084-1.924V5.436a2.25 2.25 0 00-1.084-1.924L9.166.33z" strokewidth="0"/>
</g>
<g id="SVGRepo_tracerCarrier" stroke-linecap="round" stroke-linejoin="round"/>
<g id="SVGRepo_iconCarrier">
<defs>
<style>.cls-1{fill:#5f5858;}</style>
</defs>
<path class="cls-1" d="M17.46,22H6.54a4.55,4.55,0,0,1-3.42-7.54L9,7.75V4a1,1,0,0,1,2,0V8.12a1,1,0,0,1-.25.66l-6.12,7A2.54,2.54,0,0,0,6.54,20H17.46a2.54,2.54,0,0,0,1.91-4.22l-6.12-7A1,1,0,0,1,13,8.12V6.5a1,1,0,0,1,2,0V7.75l5.88,6.71A4.55,4.55,0,0,1,17.46,22Z"/>
<path class="cls-1" d="M15,4.12H9a1,1,0,0,1,0-2h6a1,1,0,0,1,0,2Z"/>
<path class="cls-1" d="M19,15H10a1,1,0,0,1,0-2h9a1,1,0,0,1,0,2Z"/>
<path class="cls-1" d="M7,18a1,1,0,0,1-1-1,1,1,0,0,1,.08-.38.93.93,0,0,1,.21-.33,1,1,0,0,1,1.42,0,1,1,0,0,1,.21.33A.84.84,0,0,1,8,17a1,1,0,0,1-1,1Z"/>
<path class="cls-1" d="M11,21a1,1,0,0,1-.38-.08.93.93,0,0,1-.33-.21,1,1,0,0,1,0-1.42.93.93,0,0,1,.33-.21,1,1,0,0,1,1.09.21A1,1,0,0,1,11,21Z"/>
<path class="cls-1" d="M15,18l-.19,0a.6.6,0,0,1-.19-.06.76.76,0,0,1-.18-.09l-.15-.12A1.05,1.05,0,0,1,14,17a1,1,0,0,1,.08-.38.93.93,0,0,1,.21-.33,1.58,1.58,0,0,1,.15-.12.76.76,0,0,1,.18-.09.6.6,0,0,1,.19-.06,1,1,0,0,1,.9.27.93.93,0,0,1,.21.33A1,1,0,0,1,16,17a1,1,0,0,1-1,1Z"/>
<path class="cls-1" d="M12,12a1.05,1.05,0,0,1-.71-.29,1.15,1.15,0,0,1-.21-.33.94.94,0,0,1,0-.76,1,1,0,0,1,.21-.33A1,1,0,0,1,12.2,10l.18.06.18.09.15.12a1.15,1.15,0,0,1,.21.33A1,1,0,0,1,13,11a1,1,0,0,1-1,1Z"/>
</g>
</svg>